<!-- icon666.com - MILLIONS vector ICONS FREE --><svg viewBox="-2 0 512 512.00058" xmlns="http://www.w3.org/2000/svg"><path d="m498.578125 496.507812c0 8.5625-6.941406 15.492188-15.496094 15.492188h-467.585937c-8.554688 0-15.496094-6.929688-15.496094-15.492188 0-8.554687 6.941406-15.496093 15.496094-15.496093h467.585937c8.554688 0 15.496094 6.941406 15.496094 15.496093zm0 0" fill="#00cc76"></path><path d="m498.578125 496.507812c0 8.5625-6.941406 15.492188-15.496094 15.492188h-233.789062v-30.988281h233.789062c8.554688 0 15.496094 6.941406 15.496094 15.496093zm0 0" fill="#00aa63"></path><path d="m147.320312 135.671875c.042969-.878906 1.09375-21.792969 4.511719-45.722656 4.910157-34.382813 11.976563-56.484375 21.605469-67.5625 23.574219-27.121094 64.8125-30.003907 91.929688-6.433594 27.179687 23.628906 30.0625 64.746094 6.433593 91.929687-9.632812 11.078126-30.535156 21.15625-63.898437 30.804688-23.222656 6.714844-43.785156 10.667969-44.648438 10.832031-8.542968 1.628907-16.359375-5.171875-15.933594-13.847656zm46.394532-95.664063c-9.035156 10.394532-15.5 48.1875-18.324219 79.457032 30.578125-7.160156 67.109375-18.828125 76.132813-29.207032 13.886718-15.976562 12.199218-40.140624-3.78125-54.03125-15.933594-13.851562-40.171876-12.15625-54.027344 3.78125zm0 0" fill="#d03b00"></path><path d="m147.769531 149.519531c-.863281-.164062-21.425781-4.117187-44.648437-10.832031-33.363282-9.648438-54.265625-19.726562-63.894532-30.808594-23.628906-27.179687-20.753906-68.296875 6.429688-91.925781 27.117188-23.570313 68.359375-20.6875 91.929688 6.433594 9.628906 11.078125 16.699218 33.179687 21.609374 67.5625 3.414063 23.929687 4.464844 44.84375 4.507813 45.71875.425781 8.703125-7.421875 15.480469-15.933594 13.851562zm-84.492187-113.292969c-15.972656 13.886719-17.667969 38.054688-3.777344 54.03125 9.035156 10.398438 45.558594 22.058594 76.128906 29.210938-2.832031-31.277344-9.296875-69.078125-18.320312-79.460938-13.851563-15.933593-38.089844-17.636718-54.03125-3.78125zm0 0" fill="#ff6426"></path><path d="m464.648438 332.671875h-163.476563v-101.984375h148.929687zm0 0" fill="#c5ffcd"></path><path d="m464.648438 332.671875h-74.46875v-101.984375h59.921874zm0 0" fill="#a6ffb5"></path><path d="m479.203125 212.222656c0 14.285156-11.578125 25.863282-25.863281 25.863282h-155.613282v-41.347657c0-5.738281 4.652344-10.390625 10.390626-10.390625h145.210937c14.289063 0 25.875 11.582032 25.875 25.875zm0 0" fill="#00ee8a"></path><path d="m479.203125 212.222656c0 14.285156-11.578125 25.863282-25.863281 25.863282h-63.160156v-51.738282h63.148437c14.289063 0 25.875 11.582032 25.875 25.875zm0 0" fill="#00cc76"></path><path d="m507.570312 358.007812v54.914063c0 9.042969-7.332031 16.363281-16.367187 16.363281h-190.03125v-104.011718h173.667969c18.078125 0 32.730468 14.652343 32.730468 32.734374zm0 0" fill="#00ee8a"></path><path d="m507.570312 358.007812v54.914063c0 9.042969-7.332031 16.363281-16.367187 16.363281h-101.023437v-104.011718h84.660156c18.078125 0 32.730468 14.652343 32.730468 32.734374zm0 0" fill="#00cc76"></path><path d="m413.796875 362.070312c-37.066406 0-67.21875 30.15625-67.21875 67.21875 0 37.066407 30.152344 67.222657 67.21875 67.222657s67.21875-30.15625 67.21875-67.222657c0-37.066406-30.152344-67.21875-67.21875-67.21875zm0 0" fill="#00884f"></path><path d="m448.28125 429.285156c0 19.019532-15.472656 34.488282-34.488281 34.488282-19.019531 0-34.480469-15.46875-34.480469-34.488282 0-19.015625 15.460938-34.488281 34.480469-34.488281 19.015625 0 34.488281 15.472656 34.488281 34.488281zm0 0" fill="#ffe477"></path><path d="m428.382812 429.289062c0 8.058594-6.53125 14.589844-14.585937 14.589844s-14.585937-6.53125-14.585937-14.589844c0-8.054687 6.53125-14.585937 14.585937-14.585937s14.585937 6.53125 14.585937 14.585937zm0 0" fill="#00884f"></path><path d="m314.078125 131.800781v297.484375h-295.683594c-9.03125 0-16.363281-7.320312-16.363281-16.367187v-281.117188c0-9.03125 7.332031-16.363281 16.363281-16.363281h279.320313c9.042968 0 16.363281 7.332031 16.363281 16.363281zm0 0" fill="#ffe477"></path><path d="m314.078125 131.800781v297.484375h-158.566406v-313.851562h142.199219c9.046874 0 16.367187 7.332031 16.367187 16.367187zm0 0" fill="#ffcd00"></path><path d="m2.03125 325.273438v87.652343c0 9.035157 7.328125 16.363281 16.367188 16.363281h295.683593v-104.015624zm0 0" fill="#00dd80"></path><path d="m155.511719 325.273438h158.566406v104.011718h-158.566406zm0 0" fill="#00cc76"></path><path d="m125.285156 362.070312c-37.0625 0-67.21875 30.15625-67.21875 67.21875 0 37.066407 30.15625 67.222657 67.21875 67.222657 37.066406 0 67.222656-30.15625 67.222656-67.222657 0-37.066406-30.15625-67.21875-67.222656-67.21875zm0 0" fill="#00884f"></path><path d="m159.769531 429.285156c0 19.019532-15.472656 34.488282-34.488281 34.488282-19.019531 0-34.480469-15.46875-34.480469-34.488282 0-19.015625 15.460938-34.488281 34.480469-34.488281 19.015625 0 34.488281 15.472656 34.488281 34.488281zm0 0" fill="#ffe477"></path><path d="m139.875 429.289062c0 8.058594-6.53125 14.589844-14.589844 14.589844-8.054687 0-14.585937-6.53125-14.585937-14.589844 0-8.054687 6.53125-14.585937 14.585937-14.585937 8.058594 0 14.589844 6.53125 14.589844 14.585937zm0 0" fill="#00884f"></path><path d="m481.011719 429.285156c0 37.066406-30.144531 67.222656-67.21875 67.222656-.273438 0-.535157 0-.808594-.011718v-134.421875c.273437-.007813.535156-.007813.808594-.007813 37.074219 0 67.21875 30.15625 67.21875 67.21875zm0 0" fill="#00663b"></path><path d="m448.28125 429.285156c0 19.019532-15.472656 34.488282-34.488281 34.488282-.273438 0-.535157 0-.808594-.007813v-68.957031c.273437-.011719.535156-.011719.808594-.011719 19.015625 0 34.488281 15.472656 34.488281 34.488281zm0 0" fill="#ffcd00"></path><path d="m428.378906 429.285156c0 8.066406-6.523437 14.589844-14.585937 14.589844-.273438 0-.535157-.011719-.808594-.023438v-29.132812c.273437-.007812.535156-.019531.808594-.019531 8.0625 0 14.585937 6.535156 14.585937 14.585937zm0 0" fill="#00663b"></path><path d="m192.511719 429.285156c0 37.066406-30.160157 67.222656-67.222657 67.222656v-134.441406c37.0625 0 67.222657 30.15625 67.222657 67.21875zm0 0" fill="#00663b"></path><path d="m159.765625 429.285156c0 19.019532-15.460937 34.480469-34.476563 34.488282v-68.976563c19.015626.011719 34.476563 15.472656 34.476563 34.488281zm0 0" fill="#ffcd00"></path><path d="m139.875 429.285156c0 8.066406-6.535156 14.589844-14.585938 14.589844v-29.175781c8.050782 0 14.585938 6.535156 14.585938 14.585937zm0 0" fill="#00663b"></path><path d="m72.078125 192.660156h-38.839844c-5.863281 0-11.78125 3.195313-11.78125 9.546875v71.070313c0 12.71875 25.804688 12.730468 25.804688 0v-24.707032h12.726562c12.613281 0 12.445313-21.769531 0-21.769531h-12.726562v-10.574219h24.816406c12.464844 0 12.742187-23.566406 0-23.566406zm0 0" fill="#ff6426"></path><path d="m140.796875 245.269531c8.695313-5.511719 11.976563-14.191406 11.976563-24.484375 0-19.335937-12.386719-28.121094-31.703126-28.121094h-23.167968c-5.769532 0-9.542969 4.429688-9.542969 9.429688v71.183594c0 12.675781 25.800781 12.78125 25.800781 0v-22.800782h.671875l14.144531 27.464844c6.765626 13.546875 30.214844-.480468 23.359376-11.769531zm-13.824219-22.804687c0 4.425781-.886718 6.238281-5.902344 6.238281h-6.910156v-12.476563h6.910156c5.023438 0 5.902344 1.839844 5.902344 6.238282zm0 0" fill="#ff6426"></path><g fill="#d03b00"><path d="m213.605469 216.226562c12.550781 0 12.632812-23.566406 0-23.566406h-39.847657c-5.890624 0-11.78125 3.214844-11.78125 9.546875v71.070313c0 6.382812 5.96875 9.542968 11.78125 9.542968h39.847657c12.699219 0 12.480469-23.5625 0-23.5625h-25.828125v-10.683593h12.617187c12.675781 0 12.421875-21.773438 0-21.773438h-12.617187v-10.574219zm0 0"></path><path d="m283.023438 259.257812h-25.824219v-10.683593h12.617187c12.679688 0 12.414063-21.773438 0-21.773438h-12.617187v-10.574219h25.824219c12.546874 0 12.644531-23.5625 0-23.5625h-39.847657c-5.867187 0-11.78125 3.191407-11.78125 9.542969v71.070313c0 6.394531 5.984375 9.546875 11.78125 9.546875h39.847657c12.703124 0 12.480468-23.566407 0-23.566407zm0 0"></path></g></svg>