<!-- icon666.com - MILLIONS vector ICONS FREE --><svg id="Layer_1" enable-background="new 0 0 512 512" viewBox="0 0 512 512" xmlns="http://www.w3.org/2000/svg"><g><path d="m497 110.333h-289.2c-8.284 0-15-6.716-15-15v-64.266c0-8.284 6.716-15 15-15h289.2c8.284 0 15 6.716 15 15v64.267c0 8.284-6.716 14.999-15 14.999z" fill="#ff646e"></path><path d="m512 95.333v-64.266c0-8.284-6.716-15-15-15h-144.6v94.267h144.6c8.284-.001 15-6.716 15-15.001z" fill="#eb2d8c"></path><path d="m512 95.333h-319.2v208.867c0 8.284 6.716 15 15 15h289.2c8.284 0 15-6.716 15-15z" fill="#f5ebf5"></path><path d="m512 304.2v-208.867h-159.6v223.867h144.6c8.284 0 15-6.716 15-15z" fill="#ebd6eb"></path><path d="m260.338 319.2h-28.438c-8.284 0-15-6.716-15-15v-128.533c0-8.284 6.716-15 15-15s15 6.716 15 15v113.533h13.438c8.284 0 15 6.716 15 15s-6.716 15-15 15z" fill="#27325d"></path><path d="m272.066 62.133c-8.284 0-15-6.716-15-15v-32.133c0-8.284 6.716-15 15-15s15 6.716 15 15v32.133c0 8.284-6.715 15-15 15z" fill="#ffef00"></path><path d="m432.733 62.133c-8.284 0-15-6.716-15-15v-32.133c0-8.284 6.716-15 15-15s15 6.716 15 15v32.133c0 8.284-6.715 15-15 15z" fill="#ffc900"></path><path d="m43.116 159.462c-23.774 0-43.116 19.342-43.116 43.117v74.709c0 23.774 19.342 43.117 43.116 43.117 23.775 0 43.117-19.342 43.117-43.117v-74.709c0-23.775-19.341-43.117-43.117-43.117zm13.117 117.826c0 7.232-5.885 13.117-13.117 13.117s-13.116-5.884-13.116-13.117v-74.709c0-7.232 5.884-13.117 13.116-13.117s13.117 5.884 13.117 13.117z" fill="#27325d"></path><g fill="#7850ff"><path d="m364.45 351.057c-23.775 0-43.117 19.342-43.117 43.117v101.622c0 8.284 6.716 15 15 15s15-6.716 15-15v-32.133c0-7.232 5.885-13.117 13.117-13.117s13.116 5.884 13.116 13.117v32.133c0 8.284 6.716 15 15 15s15-6.716 15-15v-101.623c0-23.774-19.341-43.116-43.116-43.116zm0 69.488c-4.573 0-8.979.722-13.117 2.047v-28.418c0-7.232 5.885-13.117 13.117-13.117s13.116 5.884 13.116 13.117v28.418c-4.138-1.325-8.544-2.047-13.116-2.047z"></path><path d="m79.267 352.262h-64.267c-8.284 0-15 6.716-15 15s6.716 15 15 15h17.134v113.533c0 8.284 6.716 15 15 15s15-6.716 15-15v-113.533h17.133c8.284 0 15-6.716 15-15s-6.716-15-15-15z"></path><path d="m253.991 352.262h-32.133c-8.284 0-15 6.716-15 15v128.533c0 8.284 6.716 15 15 15h32.133c25.989 0 47.134-21.144 47.134-47.133v-64.267c0-25.989-21.145-47.133-47.134-47.133zm17.134 111.4c0 9.447-7.687 17.133-17.134 17.133h-17.133v-98.533h17.133c9.447 0 17.134 7.686 17.134 17.133z"></path><path d="m143.533 351.057c-23.774 0-43.116 19.342-43.116 43.117v74.71c0 23.774 19.342 43.117 43.116 43.117s43.117-19.342 43.117-43.117v-74.71c0-23.775-19.342-43.117-43.117-43.117zm13.117 117.826c0 7.232-5.885 13.117-13.117 13.117s-13.116-5.884-13.116-13.117v-74.71c0-7.232 5.884-13.117 13.116-13.117s13.117 5.884 13.117 13.117z"></path><path d="m503.705 353.845c-7.405-3.704-16.419-.702-20.124 6.708l-18.718 37.434-18.717-37.434c-3.704-7.41-12.713-10.414-20.124-6.708-7.41 3.705-10.413 12.715-6.708 20.125l30.549 61.099v60.727c0 8.284 6.716 15 15 15s15-6.716 15-15v-60.726l30.55-61.099c3.705-7.41.702-16.421-6.708-20.126z"></path></g><path d="m359.108 162.25c-7.406-3.703-16.419-.702-20.124 6.708l-18.718 37.434-18.717-37.434c-3.704-7.41-12.714-10.414-20.124-6.708-7.41 3.705-10.413 12.715-6.708 20.125l30.549 61.099v60.726c0 8.284 6.716 15 15 15s15-6.716 15-15v-60.727l30.55-61.099c3.705-7.409.703-16.419-6.708-20.124z" fill="#27325d"></path><path d="m179.684 160.667c-8.284 0-15 6.716-15 15v56.824l-27.491-62.836c-2.846-6.505-9.867-10.127-16.813-8.67-6.95 1.454-11.929 7.582-11.929 14.682v128.533c0 8.284 6.716 15 15 15s15-6.716 15-15v-56.824l27.491 62.836c2.846 6.505 9.867 10.127 16.813 8.67 6.95-1.454 11.929-7.582 11.929-14.682v-128.533c0-8.285-6.716-15-15-15z" fill="#27325d"></path><path d="m231.9 319.2h28.438c8.284 0 15-6.716 15-15s-6.716-15-15-15h-13.438v-49.267h-30v64.267c0 8.284 6.716 15 15 15z" fill="#0f2341"></path><path d="m43.116 320.405c23.775 0 43.117-19.342 43.117-43.117v-37.355h-30v37.355c0 7.232-5.885 13.117-13.117 13.117s-13.116-5.884-13.116-13.117v-37.355h-30v37.355c0 23.774 19.342 43.117 43.116 43.117z" fill="#0f2341"></path><path d="m305.267 243.473v60.727c0 8.284 6.716 15 15 15s15-6.716 15-15v-60.727l1.77-3.54h-33.54z" fill="#0f2341"></path><path d="m123.45 319.2c8.284 0 15-6.716 15-15v-56.824l27.491 62.836c2.846 6.505 9.867 10.127 16.813 8.67 6.95-1.454 11.929-7.582 11.929-14.682v-64.266h-86.233v64.266c0 8.284 6.716 15 15 15z" fill="#0f2341"></path><path d="m336.333 510.795c8.284 0 15-6.716 15-15v-32.133c0-7.232 5.885-13.117 13.117-13.117s13.116 5.884 13.116 13.117v32.133c0 8.284 6.716 15 15 15s15-6.716 15-15v-64.869h-86.233v64.869c0 8.284 6.716 15 15 15z" fill="#6228d5"></path><path d="m47.134 510.795c8.284 0 15-6.716 15-15v-64.869h-30v64.869c0 8.284 6.716 15 15 15z" fill="#6228d5"></path><path d="m221.858 510.795h32.133c25.989 0 47.134-21.144 47.134-47.133v-32.736h-30v32.736c0 9.447-7.687 17.133-17.134 17.133h-17.133v-49.869h-30v64.869c0 8.284 6.716 15 15 15z" fill="#6228d5"></path><path d="m143.533 512c23.774 0 43.117-19.342 43.117-43.117v-37.958h-30v37.958c0 7.232-5.885 13.117-13.117 13.117s-13.116-5.884-13.116-13.117v-37.958h-30v37.958c0 23.775 19.342 43.117 43.116 43.117z" fill="#6228d5"></path><path d="m449.863 495.795c0 8.284 6.716 15 15 15s15-6.716 15-15v-60.726l2.072-4.143h-34.143l2.071 4.143z" fill="#6228d5"></path></g></svg>