<?xml version="1.0" ?><svg xmlns="http://www.w3.org/2000/svg" width="200" height="200" viewBox="0 0 200 200" fill="none"><path d="M106.42 178C150.603 178 186.42 142.183 186.42 98C186.42 53.8172 150.603 18 106.42 18C62.2371 18 26.4199 53.8172 26.4199 98C26.4199 142.183 62.2371 178 106.42 178Z" fill="#FFFAF3"/><path d="M79.2702 87.99V118.49C79.2702 120.7 77.4802 122.49 75.2702 122.49H25.2002V87.99H79.2702Z" fill="#03544D"/><path d="M79.2702 148.87V182.16H36.8502C30.4202 182.16 25.2002 176.94 25.2002 170.51V144.87H75.2702C77.4802 144.87 79.2702 146.66 79.2702 148.87Z" fill="#03544D"/><path d="M156.65 87.99V122.49H105.65C103.44 122.49 101.65 120.7 101.65 118.49V87.99H156.65Z" fill="#03544D"/><path d="M156.65 144.87V170.97C156.65 177.15 151.64 182.16 145.46 182.16H101.65V148.87C101.65 146.66 103.44 144.87 105.65 144.87H156.65Z" fill="#03544D"/><path d="M25.4199 88V93H144.29C146.21 94.05 148.34 95.12 149.42 97C153.42 104 151.84 111.76 150.01 116.35C144.82 129.36 134.89 145.92 114.42 158C75.9499 180.7 27.0799 171.11 25.5399 170.99C26.3499 177.2 31.6499 182 38.0799 182H143.76C150.75 182 156.42 176.33 156.42 169.34V88H25.4199Z" fill="#034940"/><path d="M79.2702 87.99V118.49C79.2702 120.7 77.4802 122.49 75.2702 122.49H25.2002V87.99H79.2702Z" stroke="#333333" stroke-width="1.5" stroke-miterlimit="10"/><path d="M79.2702 148.87V182.16H36.8502C30.4202 182.16 25.2002 176.94 25.2002 170.51V144.87H75.2702C77.4802 144.87 79.2702 146.66 79.2702 148.87Z" stroke="#333333" stroke-width="1.5" stroke-miterlimit="10"/><path d="M156.65 87.99V122.49H105.65C103.44 122.49 101.65 120.7 101.65 118.49V87.99H156.65Z" stroke="#333333" stroke-width="1.5" stroke-miterlimit="10"/><path d="M156.65 144.87V170.97C156.65 177.15 151.64 182.16 145.46 182.16H101.65V148.87C101.65 146.66 103.44 144.87 105.65 144.87H156.65Z" stroke="#333333" stroke-width="1.5" stroke-miterlimit="10"/><path d="M156.65 122.49V144.87H105.65C103.44 144.87 101.65 146.66 101.65 148.87V182.16H79.2702V148.87C79.2702 146.66 77.4802 144.87 75.2702 144.87H25.2002V122.49H75.2702C77.4802 122.49 79.2702 120.7 79.2702 118.49V87.99H101.65V118.49C101.65 120.7 103.44 122.49 105.65 122.49H156.65Z" fill="#CC362D"/><path d="M101.65 164.28C94.2095 167.29 86.6295 169.34 79.2695 170.7V182H101.65V164.28Z" fill="#B72C29"/><path d="M156.42 144.87V122.49H147.3C143.79 129.7 138.77 137.53 131.43 144.87H156.42Z" fill="#B72C29"/><path d="M156.65 122.49V144.87H105.65C103.44 144.87 101.65 146.66 101.65 148.87V182.16H79.2702V148.87C79.2702 146.66 77.4802 144.87 75.2702 144.87H25.2002V122.49H75.2702C77.4802 122.49 79.2702 120.7 79.2702 118.49V87.99H101.65V118.49C101.65 120.7 103.44 122.49 105.65 122.49H156.65Z" stroke="#333333" stroke-width="1.5" stroke-miterlimit="10"/><path d="M31.5996 68.41H149.32C155.94 68.41 161.32 73.79 161.32 80.41V85.99C161.32 87.09 160.42 87.99 159.32 87.99H21.5996C20.4996 87.99 19.5996 87.09 19.5996 85.99V80.41C19.5996 73.79 24.9796 68.41 31.5996 68.41Z" fill="#03544D"/><path d="M31.5996 68.41H149.32C155.94 68.41 161.32 73.79 161.32 80.41V85.99C161.32 87.09 160.42 87.99 159.32 87.99H21.5996C20.4996 87.99 19.5996 87.09 19.5996 85.99V80.41C19.5996 73.79 24.9796 68.41 31.5996 68.41Z" stroke="#333333" stroke-width="1.5" stroke-miterlimit="10"/><path d="M90.5098 67.4C90.5098 67.4 98.0898 50.97 108.2 48.45C125.53 44.12 136 66.14 147.37 66.14C158.74 66.14 166.32 57.3 166.32 57.3" stroke="#CC362D" stroke-width="1.5" stroke-linecap="round" stroke-linejoin="round"/><path d="M89.81 67.44C89.81 67.44 82.23 51.01 72.12 48.49C54.79 44.16 44.32 66.18 32.95 66.18C21.58 66.18 14 57.34 14 57.34" stroke="#CC362D" stroke-width="1.5" stroke-linecap="round" stroke-linejoin="round"/><path d="M88.87 67.07C88.87 67.07 73.4799 30.28 61.6899 42.15C46.8299 57.1 88.87 67.07 88.87 67.07Z" stroke="#CC362D" stroke-width="1.5" stroke-linecap="round" stroke-linejoin="round"/><path d="M91.3604 67.07C91.3604 67.07 106.75 30.28 118.54 42.15C133.4 57.1 91.3604 67.07 91.3604 67.07Z" stroke="#CC362D" stroke-width="1.5" stroke-linecap="round" stroke-linejoin="round"/><path d="M103.52 68.41H76.4805V87.99H103.52V68.41Z" fill="#CC362D"/><path d="M103.52 68.41H76.4805V87.99H103.52V68.41Z" stroke="#333333" stroke-width="1.5" stroke-miterlimit="10"/></svg>